<svg width="78" height="73" viewBox="0 0 78 73" fill="none" xmlns="http://www.w3.org/2000/svg">
<g id="&#240;&#159;&#159;&#162; https://app.lottiefiles.com/animation/83329931-5ea9-49dd-96d1-654d181da05b" clip-path="url(#clip0_1925_16213)">
<g id="Clip path group">
<mask id="mask0_1925_16213" style="mask-type:luminance" maskUnits="userSpaceOnUse" x="0" y="0" width="78" height="73">
<g id="__lottie_element_1098">
<path id="Vector" d="M77.0103 0.538208H0.0102539V72.5382H77.0103V0.538208Z" fill="white"/>
</g>
</mask>
<g mask="url(#mask0_1925_16213)">
<g id="Group">
<g id="Group_2">
<g id="Group_3">
<path id="Vector_2" d="M38.2303 15.2742C46.0553 15.2742 53.5613 18.3832 59.0943 23.9162C64.6273 29.4502 67.7373 36.9552 67.7373 44.7812V63.3632C67.7373 65.4892 66.8923 67.5272 65.3893 69.0302C63.8863 70.5332 61.8483 71.3782 59.7223 71.3782H16.7403C15.6873 71.3782 14.6453 71.1702 13.6723 70.7682C12.7003 70.3652 11.8163 69.7752 11.0713 69.0312C10.3273 68.2872 9.73627 67.4032 9.33427 66.4302C8.93127 65.4582 8.72327 64.4162 8.72327 63.3632V44.7812C8.72327 36.9552 11.8323 29.4502 17.3663 23.9162C22.8993 18.3832 30.4043 15.2742 38.2303 15.2742Z" fill="white"/>
<path id="Vector_3" d="M38.2303 15.2742C46.0553 15.2742 53.5613 18.3832 59.0943 23.9162C64.6273 29.4502 67.7373 36.9552 67.7373 44.7812V63.3632C67.7373 65.4892 66.8923 67.5272 65.3893 69.0302C63.8863 70.5332 61.8483 71.3782 59.7223 71.3782H16.7403C15.6873 71.3782 14.6453 71.1702 13.6723 70.7682C12.7003 70.3652 11.8163 69.7752 11.0713 69.0312C10.3273 68.2872 9.73627 67.4032 9.33427 66.4302C8.93127 65.4582 8.72327 64.4162 8.72327 63.3632V44.7812C8.72327 36.9552 11.8323 29.4502 17.3663 23.9162C22.8993 18.3832 30.4043 15.2742 38.2303 15.2742Z" stroke="#2E4053" stroke-width="2" stroke-miterlimit="10"/>
</g>
<g id="Group_4">
<path id="Vector_4" d="M3.56125 43.9912H8.72425V56.8972H3.56125C2.88525 56.8972 2.23625 56.6292 1.75725 56.1502C1.27925 55.6722 1.01025 55.0222 1.01025 54.3462V46.5462C1.01025 46.2102 1.07625 45.8782 1.20425 45.5682C1.33225 45.2592 1.51925 44.9762 1.75625 44.7392C1.99325 44.5022 2.27425 44.3142 2.58425 44.1852C2.89425 44.0572 3.22625 43.9912 3.56125 43.9912Z" fill="white"/>
<path id="Vector_5" d="M3.56125 43.9912H8.72425V56.8972H3.56125C2.88525 56.8972 2.23625 56.6292 1.75725 56.1502C1.27925 55.6722 1.01025 55.0222 1.01025 54.3462V46.5462C1.01025 46.2102 1.07625 45.8782 1.20425 45.5682C1.33225 45.2592 1.51925 44.9762 1.75625 44.7392C1.99325 44.5022 2.27425 44.3142 2.58425 44.1852C2.89425 44.0572 3.22625 43.9912 3.56125 43.9912Z" stroke="#2E4053" stroke-width="2" stroke-miterlimit="10"/>
</g>
<g id="Group_5">
<path id="Vector_6" d="M72.9013 56.7692H67.7393V43.8632H72.9013C73.5783 43.8632 74.2273 44.1312 74.7053 44.6102C75.1833 45.0882 75.4533 45.7382 75.4533 46.4142V54.2142C75.4533 54.8912 75.1833 55.5402 74.7053 56.0192C74.2273 56.4972 73.5783 56.7662 72.9013 56.7662V56.7692Z" fill="white"/>
<path id="Vector_7" d="M72.9013 56.7692H67.7393V43.8632H72.9013C73.5783 43.8632 74.2273 44.1312 74.7053 44.6102C75.1833 45.0882 75.4533 45.7382 75.4533 46.4142V54.2142C75.4533 54.8912 75.1833 55.5402 74.7053 56.0192C74.2273 56.4972 73.5783 56.7662 72.9013 56.7662V56.7692Z" stroke="#2E4053" stroke-width="2" stroke-miterlimit="10"/>
</g>
<g id="Group_6">
<path id="Vector_8" d="M55.5342 39.6282H21.2412C18.6242 39.6282 16.5022 41.7492 16.5022 44.3662V50.3232C16.5022 52.9412 18.6242 55.0622 21.2412 55.0622H55.5342C58.1502 55.0622 60.2722 52.9412 60.2722 50.3232V44.3662C60.2722 41.7492 58.1502 39.6282 55.5342 39.6282Z" fill="#588CF6"/>
</g>
<g id="Group_7">
<path id="Vector_9" d="M26.0906 44.432C30.305 44.3848 30.0382 49.4452 30.0382 47.2792C30.0382 45.1142 28.2832 43.3582 26.1172 43.3582C23.9512 43.3582 22.1962 45.1142 22.1962 47.2792C22.1962 49.4452 21.853 44.4802 26.0906 44.432Z" fill="white"/>
<path id="Vector_10" d="M26.0906 44.432C30.305 44.3848 30.0382 49.4452 30.0382 47.2792C30.0382 45.1142 28.2832 43.3582 26.1172 43.3582C23.9512 43.3582 22.1962 45.1142 22.1962 47.2792C22.1962 49.4452 21.853 44.4802 26.0906 44.432Z" stroke="#2E4053" stroke-width="2" stroke-miterlimit="10"/>
</g>
<g id="Group_8">
<path id="Vector_11" d="M51.0906 44.432C55.305 44.3848 55.0382 49.4452 55.0382 47.2792C55.0382 45.1142 53.2832 43.3582 51.1172 43.3582C48.9512 43.3582 47.1962 45.1142 47.1962 47.2792C47.1962 49.4452 46.853 44.4802 51.0906 44.432Z" fill="white"/>
<path id="Vector_12" d="M51.0906 44.432C55.305 44.3848 55.0382 49.4452 55.0382 47.2792C55.0382 45.1142 53.2832 43.3582 51.1172 43.3582C48.9512 43.3582 47.1962 45.1142 47.1962 47.2792C47.1962 49.4452 46.853 44.4802 51.0906 44.432Z" stroke="#2E4053" stroke-width="2" stroke-miterlimit="10"/>
</g>
<g id="Group_9">
<path id="Vector_13" d="M24.3463 19.1982L27.7363 27.1092C28.1943 28.1772 28.9563 29.0882 29.9273 29.7282C30.8973 30.3682 32.0343 30.7092 33.1973 30.7092H43.1913C44.3243 30.7082 45.4333 30.3832 46.3883 29.7722C47.3433 29.1612 48.1023 28.2902 48.5783 27.2612C49.8593 24.4902 51.1413 21.7182 52.4243 18.9452" stroke="#2E4053" stroke-width="2" stroke-linecap="round" stroke-linejoin="round"/>
</g>
<g id="Group_10">
<path id="Vector_14" d="M38.1353 3.0072L38.0093 15.8472" stroke="#2E4053" stroke-width="2" stroke-miterlimit="10"/>
</g>
<g id="Group_11">
<path id="Vector_15" d="M38.0723 6.10421C39.6093 6.10421 40.8553 4.85821 40.8553 3.32121C40.8553 1.78421 39.6093 0.538208 38.0723 0.538208C36.5353 0.538208 35.2893 1.78421 35.2893 3.32121C35.2893 4.85821 36.5353 6.10421 38.0723 6.10421Z" fill="#588CF6"/>
</g>
</g>
</g>
</g>
</g>
</g>
<defs>
<clipPath id="clip0_1925_16213">
<rect width="77" height="72" fill="white" transform="translate(0.0102539 0.538208)"/>
</clipPath>
</defs>
</svg>
