<svg width="24" height="24" viewBox="0 0 24 24" fill="none" xmlns="http://www.w3.org/2000/svg">
<g id="carbon:worship-muslim">
<path id="Vector" d="M20.25 13.5C20.106 13.4998 19.9652 13.4581 19.8443 13.38L16.5 11.2275L13.1565 13.3815C13.0294 13.4637 12.8805 13.5055 12.7292 13.5015C12.5779 13.4975 12.4314 13.4478 12.3088 13.3589C12.1863 13.2701 12.0936 13.1463 12.0427 13.0037C11.9919 12.8612 11.9854 12.7066 12.024 12.5602L13.0365 8.71125L10.7325 6.5175C10.6303 6.42026 10.5575 6.29616 10.5227 6.15945C10.4878 6.02274 10.4922 5.87897 10.5353 5.74464C10.5785 5.61032 10.6587 5.49089 10.7666 5.40007C10.8746 5.30926 11.006 5.25075 11.1458 5.23125L14.427 4.77225L15.8265 1.91925C15.8877 1.79476 15.9822 1.68966 16.0995 1.61565C16.2168 1.54163 16.3523 1.5016 16.491 1.5C16.6294 1.49999 16.7652 1.53751 16.8839 1.60857C17.0026 1.67962 17.0999 1.78155 17.1653 1.9035L18.66 4.77225L21.8565 5.232C21.9959 5.25195 22.1269 5.31075 22.2344 5.40165C22.3419 5.49256 22.4217 5.6119 22.4646 5.74603C22.5075 5.88016 22.5117 6.02365 22.4769 6.16008C22.442 6.29651 22.3695 6.42038 22.2675 6.5175L19.9635 8.7105L20.976 12.5595C21.0052 12.6705 21.0084 12.7867 20.9856 12.8992C20.9628 13.0117 20.9144 13.1174 20.8443 13.2083C20.7742 13.2991 20.6841 13.3727 20.5811 13.4233C20.478 13.4738 20.3648 13.5001 20.25 13.5ZM16.5 9.585C16.6442 9.58486 16.7853 9.62626 16.9065 9.70425L19.0335 11.0745L18.3998 8.66325C18.3655 8.53347 18.3667 8.39688 18.4033 8.26773C18.4398 8.13858 18.5103 8.0216 18.6075 7.929L20.1135 6.4965L18.066 6.20175C17.9483 6.18481 17.8364 6.14014 17.7393 6.07142C17.6423 6.0027 17.563 5.91189 17.508 5.8065L16.5203 3.91125L15.5978 5.79C15.5439 5.89994 15.4639 5.99501 15.3648 6.06691C15.2657 6.13882 15.1505 6.18537 15.0293 6.2025L12.8925 6.50175L14.3925 7.929C14.4898 8.02152 14.5605 8.13846 14.5971 8.26762C14.6338 8.39677 14.6352 8.5334 14.601 8.66325L13.9665 11.0745L16.0943 9.70425C16.2152 9.62614 16.356 9.58523 16.5 9.585Z" fill="black"/>
<path id="Vector_2" d="M11.8628 22.5C9.56965 22.5003 7.34123 21.7398 5.52669 20.3377C3.71216 18.9356 2.41406 16.9711 1.8358 14.7521C1.25754 12.533 1.43181 10.1849 2.3313 8.07554C3.23078 5.96619 4.80465 4.21486 6.80628 3.09597C6.94879 3.01608 7.1135 2.98491 7.27535 3.0072C7.43721 3.02949 7.58735 3.10402 7.70297 3.21946C7.81858 3.33491 7.89333 3.48495 7.91586 3.64677C7.93839 3.80859 7.90746 3.97334 7.82778 4.11597C6.88442 5.79978 6.51687 7.74564 6.78103 9.65754C7.04519 11.5694 7.92661 13.3427 9.2912 14.7077C10.6558 16.0726 12.4289 16.9545 14.3407 17.2191C16.2525 17.4837 18.1985 17.1167 19.8825 16.1737C20.025 16.0938 20.1897 16.0627 20.3516 16.0849C20.5135 16.1072 20.6636 16.1818 20.7792 16.2972C20.8948 16.4127 20.9696 16.5627 20.9921 16.7245C21.0146 16.8863 20.9837 17.0511 20.904 17.1937C20.0035 18.801 18.6914 20.1396 17.1025 21.0721C15.5136 22.0046 13.7051 22.4974 11.8628 22.5ZM5.49528 5.97972C3.87512 7.649 2.97668 9.88865 2.99405 12.2148C3.01142 14.541 3.9432 16.767 5.58811 18.4119C7.23301 20.0568 9.45899 20.9886 11.7852 21.0059C14.1114 21.0233 16.351 20.1249 18.0203 18.5047C16.291 18.9285 14.4818 18.8993 12.7671 18.4201C11.0524 17.9408 9.49022 17.0276 8.23129 15.7687C6.97236 14.5098 6.0592 12.9476 5.57995 11.2329C5.1007 9.51822 5.07154 7.70896 5.49528 5.97972Z" fill="black"/>
</g>
</svg>
