<svg width="24" height="24" viewBox="0 0 24 24" fill="none" xmlns="http://www.w3.org/2000/svg">
<g id="devicon:github" clip-path="url(#clip0_1895_15832)">
<g id="Group">
<path id="Vector" fill-rule="evenodd" clip-rule="evenodd" d="M12 0.956787C5.74743 0.956787 0.677246 6.02585 0.677246 12.2795C0.677246 17.2824 3.92156 21.5265 8.42043 23.0238C8.98612 23.1288 9.19387 22.7782 9.19387 22.4792C9.19387 22.2092 9.18337 21.3172 9.1785 20.3711C6.0285 21.056 5.36381 19.0352 5.36381 19.0352C4.84875 17.7264 4.10662 17.3784 4.10662 17.3784C3.07912 16.6757 4.18406 16.6903 4.18406 16.6903C5.32087 16.77 5.91975 17.8571 5.91975 17.8571C6.92962 19.5877 8.56856 19.0875 9.21468 18.7984C9.31631 18.0665 9.60975 17.5669 9.93356 17.2841C7.41862 16.9982 4.77468 16.0271 4.77468 11.6885C4.77468 10.4523 5.21718 9.44229 5.9415 8.64916C5.82375 8.36416 5.43618 7.21254 6.051 5.65291C6.051 5.65291 7.00162 5.3486 9.16537 6.81354C10.0687 6.56247 11.0376 6.43629 12 6.43197C12.9619 6.43629 13.9312 6.5621 14.8363 6.81316C16.9974 5.34822 17.9469 5.65254 17.9469 5.65254C18.5632 7.21197 18.1757 8.36379 18.0581 8.64879C18.7841 9.44191 19.2234 10.452 19.2234 11.6882C19.2234 16.037 16.5746 16.9944 14.0533 17.2749C14.4596 17.6263 14.8215 18.3155 14.8215 19.3717C14.8215 20.8867 14.8084 22.106 14.8084 22.479C14.8084 22.7803 15.0124 23.1334 15.5861 23.0222C20.0824 21.5233 23.3229 17.2805 23.3229 12.2795C23.3227 6.02622 18.2531 0.956787 12 0.956787Z" fill="#181616"/>
<path id="Vector_2" d="M4.96579 17.2136C4.94086 17.2698 4.85236 17.2867 4.77173 17.2483C4.68923 17.2115 4.64329 17.1348 4.66992 17.0784C4.69429 17.0203 4.78298 17.0043 4.86492 17.0431C4.94742 17.0801 4.99429 17.1575 4.96561 17.2138L4.96579 17.2136ZM5.42442 17.7253C5.37061 17.7753 5.26504 17.7521 5.19342 17.6728C5.11917 17.594 5.10529 17.4885 5.16023 17.4376C5.21611 17.3878 5.31848 17.4114 5.39273 17.4901C5.46661 17.57 5.48123 17.6746 5.42461 17.7255L5.42442 17.7253ZM5.87104 18.3772C5.80167 18.4256 5.68804 18.3804 5.61792 18.2797C5.54854 18.1788 5.54854 18.0579 5.61979 18.0097C5.68973 17.9613 5.80167 18.005 5.87292 18.1048C5.94192 18.207 5.94192 18.3281 5.87104 18.3772ZM6.48248 19.0074C6.42061 19.0758 6.28823 19.0575 6.19148 18.9643C6.09267 18.873 6.06511 18.743 6.12717 18.6748C6.19017 18.6061 6.32311 18.6253 6.42042 18.7179C6.51923 18.809 6.54904 18.9391 6.48286 19.0072L6.48248 19.0074ZM7.32623 19.3732C7.29867 19.4619 7.17154 19.5022 7.04311 19.4643C6.91504 19.4255 6.83123 19.3218 6.85748 19.2322C6.88373 19.1428 7.01179 19.101 7.14098 19.1413C7.26904 19.1799 7.35286 19.283 7.32623 19.3732ZM8.25304 19.4409C8.25623 19.5343 8.14748 19.6115 8.01304 19.6134C7.87748 19.6166 7.76779 19.5408 7.76648 19.449C7.76648 19.3546 7.87298 19.2783 8.00836 19.2757C8.14279 19.2733 8.25323 19.3483 8.25323 19.4407L8.25304 19.4409ZM9.11517 19.2943C9.13129 19.3852 9.03773 19.4788 8.90404 19.5037C8.77279 19.5281 8.65092 19.4715 8.63404 19.3813C8.61792 19.2879 8.71317 19.1943 8.84442 19.1701C8.97829 19.1471 9.09829 19.2018 9.11517 19.2943Z" fill="#181616"/>
</g>
</g>
<defs>
<clipPath id="clip0_1895_15832">
<rect width="24" height="24" fill="white"/>
</clipPath>
</defs>
</svg>
