<svg width="24" height="24" viewBox="0 0 24 24" fill="none" xmlns="http://www.w3.org/2000/svg">
<g id="fluent:send-24-regular">
<path id="Vector" d="M5.69396 12L2.29896 3.272C2.24698 3.13875 2.23419 2.99342 2.2621 2.85313C2.29 2.71285 2.35743 2.58348 2.45645 2.48026C2.55546 2.37704 2.68192 2.30429 2.82092 2.27058C2.95992 2.23687 3.10567 2.24361 3.24096 2.29L3.33396 2.329L21.334 11.329C21.45 11.387 21.5491 11.4741 21.6214 11.5818C21.6938 11.6895 21.737 11.8141 21.7467 11.9435C21.7565 12.0729 21.7326 12.2026 21.6772 12.3199C21.6219 12.4373 21.537 12.5383 21.431 12.613L21.334 12.671L3.33396 21.671C2.75096 21.962 2.11696 21.426 2.26896 20.823L2.29896 20.728L5.69396 12ZM4.40196 4.54L7.01196 11.25H13.639C13.8202 11.25 13.9953 11.3156 14.1319 11.4348C14.2685 11.5539 14.3573 11.7184 14.382 11.898L14.389 12C14.3889 12.1814 14.3231 12.3566 14.2038 12.4932C14.0845 12.6298 13.9197 12.7186 13.74 12.743L13.639 12.75H7.00996L4.40096 19.46L19.322 12L4.40196 4.54Z" fill="black"/>
</g>
</svg>
