<svg width="24" height="24" viewBox="0 0 24 24" fill="none" xmlns="http://www.w3.org/2000/svg">
<g id="fluent:building-mosque-24-regular">
<path id="Vector" d="M3.5 7.75C3.5 7.55109 3.42098 7.36032 3.28033 7.21967C3.13968 7.07902 2.94891 7 2.75 7C2.55109 7 2.36032 7.07902 2.21967 7.21967C2.07902 7.36032 2 7.55109 2 7.75V20.75C2 21.44 2.56 22 3.25 22H20.75C21.44 22 22 21.44 22 20.75V7.75C22 7.55109 21.921 7.36032 21.7803 7.21967C21.6397 7.07902 21.4489 7 21.25 7C21.0511 7 20.8603 7.07902 20.7197 7.21967C20.579 7.36032 20.5 7.55109 20.5 7.75V13H18.002C18.3314 12.2077 18.5006 11.358 18.5 10.5C18.5 9.476 18.038 8.56 17.442 7.8C16.843 7.035 16.064 6.369 15.315 5.827C14.3903 5.16464 13.4081 4.58666 12.38 4.1L12.327 4.075L12.312 4.068L12.308 4.066H12.306C12.2094 4.02268 12.1048 4.00029 11.999 4.00029C11.8932 4.00029 11.7886 4.02268 11.692 4.066H11.69L11.686 4.068L11.671 4.075L11.618 4.1C11.5713 4.12067 11.5067 4.15167 11.424 4.193C10.4665 4.65989 9.54991 5.20648 8.684 5.827C7.935 6.369 7.156 7.035 6.557 7.799C5.962 8.56 5.5 9.476 5.5 10.5C5.5 11.386 5.677 12.23 5.998 13H3.5V7.75ZM16.331 13H7.67C7.23111 12.2399 7.00004 11.3777 7 10.5C7 9.936 7.257 9.34 7.739 8.724C8.219 8.112 8.876 7.54 9.565 7.042C10.3352 6.48875 11.1496 5.99977 12 5.58C12.8503 5.99913 13.6647 6.48744 14.435 7.04C15.124 7.539 15.782 8.111 16.261 8.723C16.744 9.339 17 9.935 17 10.499C17 11.409 16.756 12.264 16.331 12.999M20.5 20.499H14.5V18.499C14.5 17.836 14.2366 17.2001 13.7678 16.7312C13.2989 16.2624 12.663 15.999 12 15.999C11.337 15.999 10.7011 16.2624 10.2322 16.7312C9.76339 17.2001 9.5 17.836 9.5 18.499V20.499H3.5V14.499H20.5V20.499ZM11 18.499C11 18.2338 11.1054 17.9794 11.2929 17.7919C11.4804 17.6044 11.7348 17.499 12 17.499C12.2652 17.499 12.5196 17.6044 12.7071 17.7919C12.8946 17.9794 13 18.2338 13 18.499V20.499H11V18.499ZM3.75 5C3.75 5.26522 3.64464 5.51957 3.45711 5.70711C3.26957 5.89464 3.01522 6 2.75 6C2.48478 6 2.23043 5.89464 2.04289 5.70711C1.85536 5.51957 1.75 5.26522 1.75 5C1.75 4.73478 1.85536 4.48043 2.04289 4.29289C2.23043 4.10536 2.48478 4 2.75 4C3.01522 4 3.26957 4.10536 3.45711 4.29289C3.64464 4.48043 3.75 4.73478 3.75 5ZM21.25 6C21.5152 6 21.7696 5.89464 21.9571 5.70711C22.1446 5.51957 22.25 5.26522 22.25 5C22.25 4.73478 22.1446 4.48043 21.9571 4.29289C21.7696 4.10536 21.5152 4 21.25 4C20.9848 4 20.7304 4.10536 20.5429 4.29289C20.3554 4.48043 20.25 4.73478 20.25 5C20.25 5.26522 20.3554 5.51957 20.5429 5.70711C20.7304 5.89464 20.9848 6 21.25 6Z" fill="black"/>
</g>
</svg>
