<svg width="24" height="24" viewBox="0 0 24 24" fill="none" xmlns="http://www.w3.org/2000/svg">
<g id="fluent:document-table-truck-24-regular">
<path id="Vector" d="M18 20.5H12.987C12.9266 21.0755 12.6577 21.6091 12.231 22H18C18.5304 22 19.0391 21.7893 19.4142 21.4142C19.7893 21.0391 20 20.5304 20 20V9.828C19.9999 9.29761 19.7891 8.78899 19.414 8.414L13.585 2.586L13.536 2.546L13.5 2.516C13.4313 2.4509 13.3582 2.39074 13.281 2.336C13.255 2.32012 13.2283 2.30544 13.201 2.292L13.153 2.268L13.103 2.239C13.049 2.208 12.994 2.176 12.937 2.152C12.7377 2.07285 12.5271 2.02626 12.313 2.014C12.293 2.01267 12.2733 2.01033 12.254 2.007L12.172 2H6C5.46957 2 4.96086 2.21071 4.58579 2.58579C4.21071 2.96086 4 3.46957 4 4V11H5.5V4C5.5 3.86739 5.55268 3.74021 5.64645 3.64645C5.74021 3.55268 5.86739 3.5 6 3.5H12V8C12 8.53043 12.2107 9.03914 12.5858 9.41421C12.9609 9.78929 13.4696 10 14 10H18.5V20C18.5 20.1326 18.4473 20.2598 18.3536 20.3536C18.2598 20.4473 18.1326 20.5 18 20.5ZM17.378 8.5H14C13.8674 8.5 13.7402 8.44732 13.6464 8.35355C13.5527 8.25979 13.5 8.13261 13.5 8V4.621L17.378 8.5ZM13 17.5V19H15.25C15.7141 19 16.1592 18.8156 16.4874 18.4874C16.8156 18.1592 17 17.7141 17 17.25V13.25C17 12.7859 16.8156 12.3408 16.4874 12.0126C16.1592 11.6844 15.7141 11.5 15.25 11.5H9.18C9.646 11.84 9.994 12.33 10.153 12.899C10.6911 13.0281 11.1674 13.3407 11.5 13.783V13H15.25C15.3163 13 15.3799 13.0263 15.4268 13.0732C15.4737 13.1201 15.5 13.1837 15.5 13.25V14.5H11.901L12.651 16H15.5V17.25C15.5 17.3163 15.4737 17.3799 15.4268 17.4268C15.3799 17.4737 15.3163 17.5 15.25 17.5H13ZM2.604 12C1.718 12 1 12.718 1 13.604V20.021C1 20.671 1.387 21.231 1.944 21.483C2.01643 21.8956 2.22795 22.271 2.54338 22.5468C2.8588 22.8225 3.25912 22.9819 3.67774 22.9985C4.09635 23.0151 4.50803 22.8879 4.8443 22.638C5.18056 22.3881 5.42113 22.0306 5.526 21.625H6.558C6.66017 22.018 6.88988 22.366 7.21111 22.6144C7.53234 22.8628 7.92693 22.9976 8.333 22.9976C8.73907 22.9976 9.13366 22.8628 9.45489 22.6144C9.77612 22.366 10.0058 22.018 10.108 21.625H10.625C11.385 21.625 12 21.009 12 20.25V17.258C12 17.045 11.95 16.834 11.855 16.643L10.83 14.593C10.7153 14.365 10.5396 14.1732 10.3225 14.039C10.1054 13.9049 9.85525 13.8335 9.6 13.833H9.25V13.604C9.25 12.718 8.532 12 7.646 12H2.604ZM9.25 16.583V14.75H9.6C9.774 14.75 9.932 14.848 10.01 15.003L10.8 16.583H9.25ZM2.833 21.167C2.833 21.0466 2.85672 20.9273 2.9028 20.8161C2.94889 20.7048 3.01643 20.6037 3.10158 20.5186C3.18673 20.4334 3.28782 20.3659 3.39908 20.3198C3.51033 20.2737 3.62958 20.25 3.75 20.25C3.87042 20.25 3.98967 20.2737 4.10092 20.3198C4.21218 20.3659 4.31327 20.4334 4.39842 20.5186C4.48357 20.6037 4.55111 20.7048 4.5972 20.8161C4.64328 20.9273 4.667 21.0466 4.667 21.167C4.667 21.4102 4.57039 21.6434 4.39842 21.8154C4.22645 21.9874 3.9932 22.084 3.75 22.084C3.5068 22.084 3.27355 21.9874 3.10158 21.8154C2.92961 21.6434 2.833 21.4102 2.833 21.167ZM8.333 22.083C8.2101 22.0871 8.08763 22.0664 7.97289 22.0221C7.85815 21.9779 7.75348 21.911 7.6651 21.8255C7.57672 21.74 7.50645 21.6376 7.45845 21.5244C7.41046 21.4112 7.38572 21.2895 7.38572 21.1665C7.38572 21.0435 7.41046 20.9218 7.45845 20.8086C7.50645 20.6954 7.57672 20.593 7.6651 20.5075C7.75348 20.422 7.85815 20.3551 7.97289 20.3109C8.08763 20.2666 8.2101 20.2459 8.333 20.25C8.57083 20.2579 8.79629 20.3579 8.96176 20.5289C9.12722 20.6999 9.21972 20.9285 9.21972 21.1665C9.21972 21.4045 9.12722 21.6331 8.96176 21.8041C8.79629 21.9751 8.57083 22.0751 8.333 22.083Z" fill="black"/>
</g>
</svg>
