<svg width="24" height="24" viewBox="0 0 24 24" fill="none" xmlns="http://www.w3.org/2000/svg">
<g id="fluent:document-data-lock-24-regular">
<path id="Vector" d="M18.5 20C18.5 20.1326 18.4473 20.2598 18.3536 20.3536C18.2598 20.4473 18.1326 20.5 18 20.5H12V21.5C12 21.6713 11.9833 21.838 11.95 22H18C18.5304 22 19.0391 21.7893 19.4142 21.4142C19.7893 21.0391 20 20.5304 20 20V9.828C19.9999 9.29761 19.7891 8.78899 19.414 8.414L16.244 5.245L16.22 5.22L13.367 2.366C13.2509 2.24993 13.1131 2.15787 12.9614 2.09507C12.8097 2.03228 12.6472 1.99997 12.483 2H6C5.46957 2 4.96086 2.21071 4.58579 2.58579C4.21071 2.96086 4 3.46957 4 4V11.55C4.4152 11.1261 4.93137 10.8146 5.5 10.645V4C5.5 3.86739 5.55268 3.74021 5.64645 3.64645C5.74021 3.55268 5.86739 3.5 6 3.5H12V8C12 8.53043 12.2107 9.03914 12.5858 9.41421C12.9609 9.78929 13.4696 10 14 10H18.5V20ZM13.5 4.621L17.378 8.5H14C13.8674 8.5 13.7402 8.44732 13.6464 8.35355C13.5527 8.25979 13.5 8.13261 13.5 8V4.621ZM6.5 11.5C5.83696 11.5 5.20107 11.7634 4.73223 12.2322C4.26339 12.7011 4 13.337 4 14V15H3.5C3.10218 15 2.72064 15.158 2.43934 15.4393C2.15804 15.7206 2 16.1022 2 16.5V21.5C2 21.8978 2.15804 22.2794 2.43934 22.5607C2.72064 22.842 3.10218 23 3.5 23H9.5C9.89782 23 10.2794 22.842 10.5607 22.5607C10.842 22.2794 11 21.8978 11 21.5V16.5C11 16.1022 10.842 15.7206 10.5607 15.4393C10.2794 15.158 9.89782 15 9.5 15H9V14C9 13.337 8.73661 12.7011 8.26777 12.2322C7.79893 11.7634 7.16304 11.5 6.5 11.5ZM5.5 14C5.5 13.7348 5.60536 13.4804 5.79289 13.2929C5.98043 13.1054 6.23478 13 6.5 13C6.76522 13 7.01957 13.1054 7.20711 13.2929C7.39464 13.4804 7.5 13.7348 7.5 14V15H5.5V14ZM7.5 19C7.5 19.2652 7.39464 19.5196 7.20711 19.7071C7.01957 19.8946 6.76522 20 6.5 20C6.23478 20 5.98043 19.8946 5.79289 19.7071C5.60536 19.5196 5.5 19.2652 5.5 19C5.5 18.7348 5.60536 18.4804 5.79289 18.2929C5.98043 18.1054 6.23478 18 6.5 18C6.76522 18 7.01957 18.1054 7.20711 18.2929C7.39464 18.4804 7.5 18.7348 7.5 19ZM13.25 15C13.4489 15 13.6397 15.079 13.7803 15.2197C13.921 15.3603 14 15.5511 14 15.75V18.25C14 18.4489 13.921 18.6397 13.7803 18.7803C13.6397 18.921 13.4489 19 13.25 19C13.0511 19 12.8603 18.921 12.7197 18.7803C12.579 18.6397 12.5 18.4489 12.5 18.25V15.75C12.5 15.5511 12.579 15.3603 12.7197 15.2197C12.8603 15.079 13.0511 15 13.25 15ZM17 13.75C17 13.5511 16.921 13.3603 16.7803 13.2197C16.6397 13.079 16.4489 13 16.25 13C16.0511 13 15.8603 13.079 15.7197 13.2197C15.579 13.3603 15.5 13.5511 15.5 13.75V18.25C15.5 18.4489 15.579 18.6397 15.7197 18.7803C15.8603 18.921 16.0511 19 16.25 19C16.4489 19 16.6397 18.921 16.7803 18.7803C16.921 18.6397 17 18.4489 17 18.25V13.75Z" fill="black"/>
</g>
</svg>
