<svg width="5717" height="4118" viewBox="0 0 5717 4118" fill="none" xmlns="http://www.w3.org/2000/svg">
<path fill-rule="evenodd" clip-rule="evenodd" d="M2513.08 254.247L2509.32 508.493L2473.99 580.21C2387.57 755.639 2216.99 848.527 1891.99 897.117C933.323 1040.46 262.064 1505.52 73.1723 2157.24C10.1284 2374.76 9.59305 2383.57 4.5998 3278.44L0 4104.43L25.4688 4111.26C69.7634 4123.11 181.297 4118.95 279.862 4101.77C520.576 4059.8 716.69 3932.77 838.702 3739.79C860.893 3704.68 880.287 3674.41 881.795 3672.53C883.292 3670.65 910.848 3689.13 943.014 3713.62C1014.8 3768.24 1170.3 3846.07 1280.13 3882.33C1438.38 3934.58 1569.07 3955.73 1771.81 3961.92C1984.32 3968.41 2120.69 3955.06 2345.43 3905.78C2726.47 3822.22 3105.18 3518.35 3285.33 3151.59C3391.16 2936.16 3425.45 2768.1 3443.61 2375.98C3456.53 2096.85 3470.54 1953.51 3493.58 1864.55C3560.12 1607.69 3736.68 1471.66 4055.34 1431.71C4348.24 1394.98 4597.2 1556.77 4695.95 1847.97C4751.22 2010.95 4756.08 2087.1 4748.2 2665.47C4742.91 3054.1 4744.57 3228.77 4754.44 3320.92C4793.99 3690.25 4913.22 3875.28 5157.57 3946.55C5215.81 3963.53 5277.48 3968.78 5473.47 3973.42L5717 3979.19L5713.3 2959.11C5709.66 1957.47 5709.17 1937.14 5685.83 1835.24C5607.34 1492.61 5475.07 1241.9 5258.63 1025.49C5088.19 855.092 4904.54 741.263 4663.14 656.405C4527.71 608.798 4398.6 589.419 4168.68 582.187C3891.37 573.459 3695.24 601.129 3536.31 671.393L3476.29 697.939V348.969V0H2996.56H2516.83L2513.08 254.247ZM2394.6 1709.77C2319.48 1729.38 2171.98 1758.62 2066.81 1774.78C1616.62 1843.89 1551.09 1867.29 1411.17 2008.92C1281.59 2140.09 1225.5 2277.38 1225.5 2463.38C1225.5 2517.93 1233.02 2591.41 1242.19 2626.67C1286.87 2798.13 1423.83 2967.61 1576.62 3040.47C1693.43 3096.17 1741.34 3106.73 1875.6 3106.33C2008.84 3105.94 2086.23 3085.96 2197.93 3023.1C2283.01 2975.22 2392.22 2860.75 2440.12 2769.25C2508.44 2638.74 2514.74 2595.9 2515.12 2259.71C2515.34 2068.61 2521.17 1913.6 2531.28 1829.78C2549.84 1676.09 2550.1 1670.96 2539.37 1672.76C2534.86 1673.51 2469.71 1690.17 2394.6 1709.77Z" fill="#2E4053"/>
<path fill-rule="evenodd" clip-rule="evenodd" d="M12.6963 936.094V1664.63L51.7354 1599.73C230.28 1302.95 541.959 1059.51 884.057 949.684L963.272 924.242V813.439C963.272 548.585 867.198 377.613 662.638 278.433C539.708 218.831 472.578 207.907 228.488 207.722L12.6963 207.558V936.094Z" fill="#2E4053"/>
</svg>
