<svg width="717" height="169" viewBox="0 0 717 169" fill="none" xmlns="http://www.w3.org/2000/svg">
<path fill-rule="evenodd" clip-rule="evenodd" d="M107.232 32.4088L107.123 39.8177L106.093 41.9075C103.575 47.0196 98.6039 49.7264 89.1334 51.1423C61.1973 55.3194 41.6366 68.8715 36.1323 87.8628C34.2951 94.2014 34.2795 94.458 34.134 120.535L34 144.605L34.7422 144.804C36.0329 145.149 39.2831 145.028 42.1553 144.527C49.1698 143.304 54.8846 139.602 58.4401 133.979C59.0867 132.956 59.6519 132.074 59.6958 132.019C59.7394 131.964 60.5424 132.503 61.4798 133.216C63.5716 134.808 68.103 137.076 71.3034 138.132C75.915 139.655 79.7233 140.272 85.6311 140.452C91.8238 140.641 95.7976 140.252 102.347 138.816C113.45 136.381 124.486 127.526 129.736 116.839C132.82 110.561 133.819 105.664 134.348 94.237C134.725 86.103 135.133 81.9259 135.804 79.3337C137.743 71.8488 142.888 67.8846 152.174 66.7205C160.709 65.6503 167.964 70.3647 170.842 78.8505C172.452 83.5997 172.594 85.8188 172.364 102.673C172.21 113.997 172.258 119.088 172.546 121.773C173.699 132.535 177.173 137.927 184.293 140.004C185.99 140.499 187.788 140.652 193.499 140.787L200.595 140.955L200.487 111.23C200.381 82.0414 200.367 81.449 199.687 78.4796C197.4 68.4952 193.546 61.1895 187.238 54.883C182.272 49.9177 176.92 46.6007 169.886 44.1279C165.939 42.7406 162.177 42.1759 155.477 41.9651C147.396 41.7108 141.68 42.5171 137.049 44.5646L135.3 45.3382V35.1691V25H121.321H107.341L107.232 32.4088ZM103.779 74.8233C101.59 75.3947 97.2922 76.2469 94.2276 76.7177C81.1089 78.7318 79.1992 79.4136 75.1219 83.5408C71.3461 87.363 69.7115 91.3638 69.7115 96.7837C69.7115 98.3734 69.9305 100.515 70.198 101.542C71.4999 106.539 75.4909 111.477 79.9433 113.6C83.3472 115.224 84.7434 115.531 88.6558 115.52C92.5383 115.508 94.7934 114.926 98.0483 113.094C100.528 111.699 103.71 108.363 105.106 105.697C107.097 101.894 107.28 100.645 107.292 90.8487C107.298 85.2801 107.468 80.763 107.762 78.3205C108.303 73.8419 108.311 73.6923 107.998 73.7448C107.867 73.7667 105.968 74.2522 103.779 74.8233Z" fill="white"/>
<path fill-rule="evenodd" clip-rule="evenodd" d="M34.3697 52.2811V73.5109L35.5073 71.6197C40.7101 62.9713 49.7926 55.8776 59.7615 52.6771L62.0698 51.9357V48.7069C62.0698 40.9889 59.2702 36.0067 53.3092 33.1166C49.727 31.3798 47.7708 31.0615 40.6579 31.056L34.3697 31.0513V52.2811Z" fill="white"/>
<path d="M265.022 34.48V138H242.622V34.48H265.022ZM322.804 34.48C336.031 34.48 342.644 41.52 342.644 55.6V116.88C342.644 130.96 336.031 138 322.804 138H281.684V34.48H322.804ZM320.244 119.44V52.88C320.244 52.0267 319.924 51.28 319.284 50.64C318.751 50 318.058 49.68 317.204 49.68H304.084V122.64H317.204C318.058 122.64 318.751 122.32 319.284 121.68C319.924 121.04 320.244 120.293 320.244 119.44ZM418.701 138H396.301V52.08C396.301 51.2267 395.981 50.48 395.341 49.84C394.807 49.2 394.114 48.88 393.261 48.88H384.621C383.767 48.88 383.021 49.2 382.381 49.84C381.847 50.48 381.581 51.2267 381.581 52.08V138H359.181V54C359.181 39.92 365.794 32.88 379.021 32.88H398.861C412.087 32.88 418.701 39.92 418.701 54V138ZM491.156 61.68H469.876V53.52C469.876 52.6667 469.556 51.92 468.916 51.28C468.382 50.64 467.689 50.32 466.836 50.32H458.036C457.182 50.32 456.436 50.64 455.796 51.28C455.262 51.92 454.996 52.6667 454.996 53.52V71.92C454.996 72.7733 455.262 73.52 455.796 74.16C456.436 74.8 457.182 75.12 458.036 75.12H472.436C485.662 75.3333 492.276 82.3733 492.276 96.24V118.48C492.276 132.56 485.662 139.6 472.436 139.6H453.556C440.329 139.6 433.716 132.56 433.716 118.48V107.76H454.996V119.28C454.996 120.133 455.262 120.88 455.796 121.52C456.436 122.16 457.182 122.48 458.036 122.48H467.956C468.809 122.48 469.502 122.16 470.036 121.52C470.676 120.88 470.996 120.133 470.996 119.28V98.96C470.996 98.1067 470.676 97.36 470.036 96.72C469.502 96.08 468.809 95.76 467.956 95.76H453.556C440.329 95.76 433.716 88.72 433.716 74.64V54C433.716 39.92 440.329 32.88 453.556 32.88H471.316C484.542 32.88 491.156 39.92 491.156 54V61.68ZM527.637 138H506.197V34.48H527.637V62.16C530.837 59.6 535.21 58.32 540.757 58.32H544.117C557.344 58.32 563.957 65.36 563.957 79.44V138H542.517V76.88C542.517 76.0267 542.197 75.28 541.557 74.64C541.024 74 540.33 73.68 539.477 73.68H530.677C528.864 73.68 527.85 74.64 527.637 76.56V138ZM636.301 79.44V118.48C636.301 132.56 629.687 139.6 616.461 139.6H598.381C585.154 139.6 578.541 132.56 578.541 118.48V79.44C578.541 65.36 585.154 58.32 598.381 58.32H616.461C629.687 58.32 636.301 65.36 636.301 79.44ZM614.861 122.96V74.8C614.861 73.9467 614.541 73.2 613.901 72.56C613.367 71.92 612.674 71.6 611.821 71.6H603.021C602.167 71.6 601.421 71.92 600.781 72.56C600.247 73.2 599.981 73.9467 599.981 74.8V122.96C599.981 123.813 600.247 124.56 600.781 125.2C601.421 125.84 602.167 126.16 603.021 126.16H611.821C612.674 126.16 613.367 125.84 613.901 125.2C614.541 124.56 614.861 123.813 614.861 122.96ZM688.804 139.6H685.444C680.004 139.6 675.631 138.32 672.324 135.76V163.44H650.884V59.92H668.964V65.68C672.271 60.7733 677.764 58.32 685.444 58.32H688.804C702.031 58.32 708.644 65.36 708.644 79.44V118.48C708.644 132.56 702.031 139.6 688.804 139.6ZM672.324 76.88V121.04C672.324 121.893 672.591 122.64 673.124 123.28C673.764 123.92 674.511 124.24 675.364 124.24H684.164C685.018 124.24 685.711 123.92 686.244 123.28C686.884 122.64 687.204 121.893 687.204 121.04V76.88C687.204 76.0267 686.884 75.28 686.244 74.64C685.711 74 685.018 73.68 684.164 73.68H675.364C674.511 73.68 673.764 74 673.124 74.64C672.591 75.28 672.324 76.0267 672.324 76.88Z" fill="white"/>
</svg>
