<svg width="24" height="24" viewBox="0 0 24 24" fill="none" xmlns="http://www.w3.org/2000/svg">
<g id="pepicons-print:square-filled">
<g id="Group">
<path id="Vector" opacity="0.2" fill-rule="evenodd" clip-rule="evenodd" d="M7.20007 7.80001C7.20007 7.64088 7.26329 7.48827 7.37581 7.37575C7.48833 7.26323 7.64094 7.20001 7.80007 7.20001H19.8001C19.9592 7.20001 20.1118 7.26323 20.2243 7.37575C20.3369 7.48827 20.4001 7.64088 20.4001 7.80001V19.8C20.4001 19.9591 20.3369 20.1118 20.2243 20.2243C20.1118 20.3368 19.9592 20.4 19.8001 20.4H7.80007C7.64094 20.4 7.48833 20.3368 7.37581 20.2243C7.26329 20.1118 7.20007 19.9591 7.20007 19.8V7.80001Z" fill="black"/>
<path id="Vector_2" fill-rule="evenodd" clip-rule="evenodd" d="M5.40002 6.00002C5.40002 5.84089 5.46324 5.68828 5.57576 5.57576C5.68828 5.46324 5.84089 5.40002 6.00002 5.40002H18C18.1592 5.40002 18.3118 5.46324 18.4243 5.57576C18.5368 5.68828 18.6 5.84089 18.6 6.00002V18C18.6 18.1592 18.5368 18.3118 18.4243 18.4243C18.3118 18.5368 18.1592 18.6 18 18.6H6.00002C5.84089 18.6 5.68828 18.5368 5.57576 18.4243C5.46324 18.3118 5.40002 18.1592 5.40002 18V6.00002ZM6.60002 6.60002V17.4H17.4V6.60002H6.60002Z" fill="black"/>
</g>
</g>
</svg>
