<svg width="24" height="24" viewBox="0 0 24 24" fill="none" xmlns="http://www.w3.org/2000/svg">
<g id="pepicons-print:square">
<g id="Group">
<path id="Vector" opacity="0.2" fill-rule="evenodd" clip-rule="evenodd" d="M8.4 8.4V18H18V8.4H8.4ZM6.6 6C6.44087 6 6.28826 6.06321 6.17574 6.17574C6.06321 6.28826 6 6.44087 6 6.6V19.8C6 19.9591 6.06321 20.1117 6.17574 20.2243C6.28826 20.3368 6.44087 20.4 6.6 20.4H19.8C19.9591 20.4 20.1117 20.3368 20.2243 20.2243C20.3368 20.1117 20.4 19.9591 20.4 19.8V6.6C20.4 6.44087 20.3368 6.28826 20.2243 6.17574C20.1117 6.06321 19.9591 6 19.8 6H6.6Z" fill="black"/>
<path id="Vector_2" fill-rule="evenodd" clip-rule="evenodd" d="M5.40002 6.00002C5.40002 5.84089 5.46324 5.68828 5.57576 5.57576C5.68828 5.46324 5.84089 5.40002 6.00002 5.40002H18C18.1592 5.40002 18.3118 5.46324 18.4243 5.57576C18.5368 5.68828 18.6 5.84089 18.6 6.00002V18C18.6 18.1592 18.5368 18.3118 18.4243 18.4243C18.3118 18.5368 18.1592 18.6 18 18.6H6.00002C5.84089 18.6 5.68828 18.5368 5.57576 18.4243C5.46324 18.3118 5.40002 18.1592 5.40002 18V6.00002ZM6.60002 6.60002V17.4H17.4V6.60002H6.60002Z" fill="black"/>
</g>
</g>
</svg>
