<svg width="24" height="24" viewBox="0 0 24 24" fill="none" xmlns="http://www.w3.org/2000/svg">
<g id="pepicons-print:hash">
<g id="Group">
<g id="Group_2" opacity="0.2">
<path id="Vector" fill-rule="evenodd" clip-rule="evenodd" d="M4.79993 10.5C4.79993 10.0226 4.98957 9.56479 5.32713 9.22722C5.6647 8.88965 6.12254 8.70001 6.59993 8.70001H19.7999C20.2773 8.70001 20.7352 8.88965 21.0727 9.22722C21.4103 9.56479 21.5999 10.0226 21.5999 10.5C21.5999 10.9774 21.4103 11.4352 21.0727 11.7728C20.7352 12.1104 20.2773 12.3 19.7999 12.3H6.59993C6.12254 12.3 5.6647 12.1104 5.32713 11.7728C4.98957 11.4352 4.79993 10.9774 4.79993 10.5ZM4.79993 17.1C4.79993 16.6226 4.98957 16.1648 5.32713 15.8272C5.6647 15.4897 6.12254 15.3 6.59993 15.3H19.7999C20.2773 15.3 20.7352 15.4897 21.0727 15.8272C21.4103 16.1648 21.5999 16.6226 21.5999 17.1C21.5999 17.5774 21.4103 18.0352 21.0727 18.3728C20.7352 18.7104 20.2773 18.9 19.7999 18.9H6.59993C6.12254 18.9 5.6647 18.7104 5.32713 18.3728C4.98957 18.0352 4.79993 17.5774 4.79993 17.1Z" fill="black"/>
<path id="Vector_2" fill-rule="evenodd" clip-rule="evenodd" d="M10.6499 4.20599C10.8855 4.22565 11.1149 4.29154 11.3251 4.39988C11.5352 4.50823 11.7219 4.65691 11.8746 4.83743C12.0273 5.01796 12.1429 5.22679 12.2148 5.452C12.2868 5.67721 12.3136 5.91439 12.2939 6.14999L11.0939 20.55C11.0541 21.0258 10.827 21.4663 10.4624 21.7746C10.0978 22.0829 9.6257 22.2338 9.1499 22.194C8.6741 22.1542 8.23359 21.927 7.92528 21.5625C7.61697 21.1979 7.46612 20.7258 7.5059 20.25L8.7059 5.84999C8.72556 5.61438 8.79145 5.38496 8.8998 5.17483C9.00814 4.96469 9.15682 4.77796 9.33735 4.62529C9.51787 4.47262 9.7267 4.35702 9.95191 4.28507C10.1771 4.21313 10.4143 4.18625 10.6499 4.20599ZM17.2499 4.20599C17.4855 4.22565 17.7149 4.29154 17.9251 4.39988C18.1352 4.50823 18.3219 4.65691 18.4746 4.83743C18.6273 5.01796 18.7429 5.22679 18.8148 5.452C18.8868 5.67721 18.9136 5.91439 18.8939 6.14999L17.6939 20.55C17.6742 20.7856 17.6083 21.015 17.4999 21.2251C17.3916 21.4352 17.2429 21.6219 17.0624 21.7746C16.8819 21.9273 16.673 22.0429 16.4479 22.1148C16.2227 22.1868 15.9855 22.2137 15.7499 22.194C15.5143 22.1743 15.2849 22.1084 15.0748 22C14.8647 21.8917 14.6779 21.743 14.5253 21.5625C14.3726 21.382 14.257 21.1731 14.1851 20.9479C14.1131 20.7227 14.0862 20.4856 14.1059 20.25L15.3059 5.84999C15.3256 5.61438 15.3914 5.38496 15.4998 5.17483C15.6081 4.96469 15.7568 4.77796 15.9373 4.62529C16.1179 4.47262 16.3267 4.35702 16.5519 4.28507C16.7771 4.21313 17.0143 4.18625 17.2499 4.20599Z" fill="black"/>
</g>
<path id="Vector_3" fill-rule="evenodd" clip-rule="evenodd" d="M3.59998 9.30001C3.59998 9.14088 3.66319 8.98827 3.77571 8.87575C3.88823 8.76323 4.04085 8.70001 4.19998 8.70001H19.8C19.9591 8.70001 20.1117 8.76323 20.2242 8.87575C20.3368 8.98827 20.4 9.14088 20.4 9.30001C20.4 9.45914 20.3368 9.61175 20.2242 9.72428C20.1117 9.8368 19.9591 9.90001 19.8 9.90001H4.19998C4.04085 9.90001 3.88823 9.8368 3.77571 9.72428C3.66319 9.61175 3.59998 9.45914 3.59998 9.30001ZM3.59998 15.9C3.59998 15.7409 3.66319 15.5883 3.77571 15.4757C3.88823 15.3632 4.04085 15.3 4.19998 15.3H19.8C19.9591 15.3 20.1117 15.3632 20.2242 15.4757C20.3368 15.5883 20.4 15.7409 20.4 15.9C20.4 16.0591 20.3368 16.2118 20.2242 16.3243C20.1117 16.4368 19.9591 16.5 19.8 16.5H4.19998C4.04085 16.5 3.88823 16.4368 3.77571 16.3243C3.66319 16.2118 3.59998 16.0591 3.59998 15.9Z" fill="black"/>
<path id="Vector_4" fill-rule="evenodd" clip-rule="evenodd" d="M9.34913 4.20242C9.4277 4.20892 9.50422 4.23085 9.57431 4.26694C9.6444 4.30304 9.70669 4.35259 9.75762 4.41277C9.80855 4.47295 9.84712 4.54258 9.87113 4.61767C9.89513 4.69276 9.90411 4.77185 9.89753 4.85042L8.69753 19.2504C8.67969 19.4054 8.60223 19.5473 8.48155 19.6461C8.36087 19.7449 8.20646 19.7928 8.05104 19.7797C7.89563 19.7666 7.75143 19.6935 7.649 19.5759C7.54657 19.4582 7.49396 19.3054 7.50233 19.1496L8.70233 4.74962C8.71577 4.59115 8.79157 4.44451 8.91308 4.3419C9.03458 4.2393 9.19065 4.18913 9.34913 4.20242ZM15.9503 4.20242C16.1088 4.21586 16.2554 4.29166 16.358 4.41316C16.4607 4.53467 16.5108 4.69194 16.4975 4.85042L15.2975 19.2504C15.2797 19.4054 15.2022 19.5473 15.0815 19.6461C14.9609 19.7449 14.8065 19.7928 14.651 19.7797C14.4956 19.7666 14.3514 19.6935 14.249 19.5759C14.1466 19.4582 14.094 19.3054 14.1023 19.1496L15.3023 4.74962C15.3158 4.59115 15.3916 4.44451 15.5131 4.3419C15.6346 4.2393 15.7919 4.18913 15.9503 4.20242Z" fill="black"/>
</g>
</g>
</svg>
