<svg width="24" height="24" viewBox="0 0 24 24" fill="none" xmlns="http://www.w3.org/2000/svg">
<g id="ph:hand-heart" clip-path="url(#clip0_1895_15735)">
<path id="Vector" d="M21.5934 13.2244C21.3482 13.0354 21.067 12.8983 20.7671 12.8214C20.4671 12.7445 20.1547 12.7295 19.8488 12.7772C21.6094 10.9997 22.5 9.23253 22.5 7.50003C22.5 5.01846 20.5041 3.00003 18.0506 3.00003C17.3996 2.99594 16.7556 3.13439 16.1638 3.40567C15.5721 3.67695 15.0468 4.07448 14.625 4.57034C14.2032 4.07448 13.6779 3.67695 13.0862 3.40567C12.4944 3.13439 11.8504 2.99594 11.1994 3.00003C8.74594 3.00003 6.75 5.01846 6.75 7.50003C6.75 8.53128 7.05375 9.53346 7.69312 10.5938C7.16947 10.7264 6.69158 10.9986 6.31031 11.3813L4.18969 13.5H1.5C1.10218 13.5 0.720644 13.6581 0.43934 13.9394C0.158035 14.2207 0 14.6022 0 15L0 18.75C0 19.1479 0.158035 19.5294 0.43934 19.8107C0.720644 20.092 1.10218 20.25 1.5 20.25H11.25C11.3113 20.25 11.3724 20.2424 11.4319 20.2275L17.4319 18.7275C17.4701 18.7184 17.5074 18.7058 17.5434 18.69L21.1875 17.1394L21.2288 17.1207C21.579 16.9456 21.8789 16.6844 22.1002 16.3614C22.3215 16.0385 22.457 15.6645 22.4939 15.2747C22.5307 14.885 22.4678 14.4922 22.3109 14.1335C22.154 13.7748 21.9084 13.462 21.5972 13.2244H21.5934ZM11.1994 4.50003C11.7803 4.49153 12.3505 4.65647 12.8371 4.97378C13.3238 5.29108 13.7047 5.74632 13.9313 6.28128C13.9878 6.41883 14.0839 6.53649 14.2074 6.61929C14.3309 6.70209 14.4763 6.7463 14.625 6.7463C14.7737 6.7463 14.9191 6.70209 15.0426 6.61929C15.1661 6.53649 15.2622 6.41883 15.3187 6.28128C15.5453 5.74632 15.9262 5.29108 16.4129 4.97378C16.8995 4.65647 17.4697 4.49153 18.0506 4.50003C19.6491 4.50003 21 5.87346 21 7.50003C21 9.32909 19.5197 11.3982 16.7194 13.4907L15.6797 13.7297C15.7709 13.3442 15.7738 12.943 15.6879 12.5563C15.6021 12.1695 15.4298 11.8072 15.1841 11.4965C14.9383 11.1858 14.6254 10.9348 14.2688 10.7622C13.9122 10.5896 13.5212 10.5 13.125 10.5H9.43875C8.62969 9.40878 8.25 8.44878 8.25 7.50003C8.25 5.87346 9.60094 4.50003 11.1994 4.50003ZM1.5 15H3.75V18.75H1.5V15ZM20.5716 15.7697L17.0091 17.2866L11.1562 18.75H5.25V14.5603L7.37156 12.4397C7.51035 12.2998 7.67555 12.1889 7.85758 12.1134C8.0396 12.0379 8.23482 11.9994 8.43188 12H13.125C13.4234 12 13.7095 12.1186 13.9205 12.3295C14.1315 12.5405 14.25 12.8267 14.25 13.125C14.25 13.4234 14.1315 13.7095 13.9205 13.9205C13.7095 14.1315 13.4234 14.25 13.125 14.25H10.5C10.3011 14.25 10.1103 14.329 9.96967 14.4697C9.82902 14.6103 9.75 14.8011 9.75 15C9.75 15.1989 9.82902 15.3897 9.96967 15.5304C10.1103 15.671 10.3011 15.75 10.5 15.75H13.5C13.5565 15.7499 13.6127 15.7436 13.6678 15.7313L19.9491 14.2866L19.9781 14.2791C20.1699 14.2259 20.3745 14.2454 20.5527 14.334C20.7309 14.4226 20.87 14.574 20.9434 14.759C21.0167 14.944 21.0189 15.1495 20.9498 15.3361C20.8806 15.5227 20.7449 15.6772 20.5687 15.7697H20.5716Z" fill="black"/>
</g>
<defs>
<clipPath id="clip0_1895_15735">
<rect width="24" height="24" fill="white"/>
</clipPath>
</defs>
</svg>
