<svg width="24" height="24" viewBox="0 0 24 24" fill="none" xmlns="http://www.w3.org/2000/svg">
<g id="prime:sort-down-fill">
<path id="Vector" d="M4.99995 7.75C4.85171 7.75013 4.70683 7.79419 4.58362 7.87661C4.4604 7.95903 4.36438 8.07611 4.30766 8.21308C4.25095 8.35004 4.2361 8.50074 4.26499 8.64614C4.29387 8.79154 4.36519 8.92511 4.46995 9.03L11.47 16.03C11.6106 16.1705 11.8012 16.2493 12 16.2493C12.1987 16.2493 12.3893 16.1705 12.53 16.03L19.53 9.03C19.6347 8.92511 19.706 8.79154 19.7349 8.64614C19.7638 8.50074 19.749 8.35004 19.6922 8.21308C19.6355 8.07611 19.5395 7.95903 19.4163 7.87661C19.2931 7.79419 19.1482 7.75013 19 7.75H4.99995Z" fill="black"/>
</g>
</svg>
