<svg width="24" height="24" viewBox="0 0 24 24" fill="none" xmlns="http://www.w3.org/2000/svg">
<g id="radix-icons:calendar">
<path id="Vector" fill-rule="evenodd" clip-rule="evenodd" d="M7.19998 1.59998C7.41215 1.59998 7.61563 1.68426 7.76566 1.83429C7.91569 1.98432 7.99998 2.1878 7.99998 2.39998V3.19998H16V2.39998C16 2.1878 16.0843 1.98432 16.2343 1.83429C16.3843 1.68426 16.5878 1.59998 16.8 1.59998C17.0122 1.59998 17.2156 1.68426 17.3657 1.83429C17.5157 1.98432 17.6 2.1878 17.6 2.39998V3.19998H20C20.6365 3.19998 21.2469 3.45283 21.697 3.90292C22.1471 4.35301 22.4 4.96346 22.4 5.59998V20C22.4 20.6365 22.1471 21.2469 21.697 21.697C21.2469 22.1471 20.6365 22.4 20 22.4H3.99998C3.36346 22.4 2.75301 22.1471 2.30292 21.697C1.85283 21.2469 1.59998 20.6365 1.59998 20V5.59998C1.59998 4.96346 1.85283 4.35301 2.30292 3.90292C2.75301 3.45283 3.36346 3.19998 3.99998 3.19998H6.39998V2.39998C6.39998 2.1878 6.48426 1.98432 6.63429 1.83429C6.78432 1.68426 6.9878 1.59998 7.19998 1.59998ZM16 4.79998V5.59998C16 5.81215 16.0843 6.01563 16.2343 6.16566C16.3843 6.31569 16.5878 6.39998 16.8 6.39998C17.0122 6.39998 17.2156 6.31569 17.3657 6.16566C17.5157 6.01563 17.6 5.81215 17.6 5.59998V4.79998H20C20.2122 4.79998 20.4156 4.88426 20.5657 5.03429C20.7157 5.18432 20.8 5.3878 20.8 5.59998V7.99998H3.19998V5.59998C3.19998 5.3878 3.28426 5.18432 3.43429 5.03429C3.58432 4.88426 3.7878 4.79998 3.99998 4.79998H6.39998V5.59998C6.39998 5.81215 6.48426 6.01563 6.63429 6.16566C6.78432 6.31569 6.9878 6.39998 7.19998 6.39998C7.41215 6.39998 7.61563 6.31569 7.76566 6.16566C7.91569 6.01563 7.99998 5.81215 7.99998 5.59998V4.79998H16ZM3.19998 9.59998V20C3.19998 20.2122 3.28426 20.4156 3.43429 20.5657C3.58432 20.7157 3.7878 20.8 3.99998 20.8H20C20.2122 20.8 20.4156 20.7157 20.5657 20.5657C20.7157 20.4156 20.8 20.2122 20.8 20V9.59998H3.19998ZM11.2 12C11.2 11.7878 11.2843 11.5843 11.4343 11.4343C11.5843 11.2843 11.7878 11.2 12 11.2C12.2121 11.2 12.4156 11.2843 12.5657 11.4343C12.7157 11.5843 12.8 11.7878 12.8 12C12.8 12.2121 12.7157 12.4156 12.5657 12.5657C12.4156 12.7157 12.2121 12.8 12 12.8C11.7878 12.8 11.5843 12.7157 11.4343 12.5657C11.2843 12.4156 11.2 12.2121 11.2 12ZM15.2 11.2C14.9878 11.2 14.7843 11.2843 14.6343 11.4343C14.4843 11.5843 14.4 11.7878 14.4 12C14.4 12.2121 14.4843 12.4156 14.6343 12.5657C14.7843 12.7157 14.9878 12.8 15.2 12.8C15.4122 12.8 15.6156 12.7157 15.7657 12.5657C15.9157 12.4156 16 12.2121 16 12C16 11.7878 15.9157 11.5843 15.7657 11.4343C15.6156 11.2843 15.4122 11.2 15.2 11.2ZM17.6 12C17.6 11.7878 17.6843 11.5843 17.8343 11.4343C17.9843 11.2843 18.1878 11.2 18.4 11.2C18.6122 11.2 18.8156 11.2843 18.9657 11.4343C19.1157 11.5843 19.2 11.7878 19.2 12C19.2 12.2121 19.1157 12.4156 18.9657 12.5657C18.8156 12.7157 18.6122 12.8 18.4 12.8C18.1878 12.8 17.9843 12.7157 17.8343 12.5657C17.6843 12.4156 17.6 12.2121 17.6 12ZM18.4 14.4C18.1878 14.4 17.9843 14.4843 17.8343 14.6343C17.6843 14.7843 17.6 14.9878 17.6 15.2C17.6 15.4122 17.6843 15.6156 17.8343 15.7657C17.9843 15.9157 18.1878 16 18.4 16C18.6122 16 18.8156 15.9157 18.9657 15.7657C19.1157 15.6156 19.2 15.4122 19.2 15.2C19.2 14.9878 19.1157 14.7843 18.9657 14.6343C18.8156 14.4843 18.6122 14.4 18.4 14.4ZM14.4 15.2C14.4 14.9878 14.4843 14.7843 14.6343 14.6343C14.7843 14.4843 14.9878 14.4 15.2 14.4C15.4122 14.4 15.6156 14.4843 15.7657 14.6343C15.9157 14.7843 16 14.9878 16 15.2C16 15.4122 15.9157 15.6156 15.7657 15.7657C15.6156 15.9157 15.4122 16 15.2 16C14.9878 16 14.7843 15.9157 14.6343 15.7657C14.4843 15.6156 14.4 15.4122 14.4 15.2ZM12 14.4C11.7878 14.4 11.5843 14.4843 11.4343 14.6343C11.2843 14.7843 11.2 14.9878 11.2 15.2C11.2 15.4122 11.2843 15.6156 11.4343 15.7657C11.5843 15.9157 11.7878 16 12 16C12.2121 16 12.4156 15.9157 12.5657 15.7657C12.7157 15.6156 12.8 15.4122 12.8 15.2C12.8 14.9878 12.7157 14.7843 12.5657 14.6343C12.4156 14.4843 12.2121 14.4 12 14.4ZM7.99998 15.2C7.99998 14.9878 8.08426 14.7843 8.23429 14.6343C8.38432 14.4843 8.5878 14.4 8.79998 14.4C9.01215 14.4 9.21563 14.4843 9.36566 14.6343C9.51569 14.7843 9.59998 14.9878 9.59998 15.2C9.59998 15.4122 9.51569 15.6156 9.36566 15.7657C9.21563 15.9157 9.01215 16 8.79998 16C8.5878 16 8.38432 15.9157 8.23429 15.7657C8.08426 15.6156 7.99998 15.4122 7.99998 15.2ZM5.59998 14.4C5.3878 14.4 5.18432 14.4843 5.03429 14.6343C4.88426 14.7843 4.79998 14.9878 4.79998 15.2C4.79998 15.4122 4.88426 15.6156 5.03429 15.7657C5.18432 15.9157 5.3878 16 5.59998 16C5.81215 16 6.01563 15.9157 6.16566 15.7657C6.31569 15.6156 6.39998 15.4122 6.39998 15.2C6.39998 14.9878 6.31569 14.7843 6.16566 14.6343C6.01563 14.4843 5.81215 14.4 5.59998 14.4ZM4.79998 18.4C4.79998 18.1878 4.88426 17.9843 5.03429 17.8343C5.18432 17.6843 5.3878 17.6 5.59998 17.6C5.81215 17.6 6.01563 17.6843 6.16566 17.8343C6.31569 17.9843 6.39998 18.1878 6.39998 18.4C6.39998 18.6122 6.31569 18.8156 6.16566 18.9657C6.01563 19.1157 5.81215 19.2 5.59998 19.2C5.3878 19.2 5.18432 19.1157 5.03429 18.9657C4.88426 18.8156 4.79998 18.6122 4.79998 18.4ZM8.79998 17.6C8.5878 17.6 8.38432 17.6843 8.23429 17.8343C8.08426 17.9843 7.99998 18.1878 7.99998 18.4C7.99998 18.6122 8.08426 18.8156 8.23429 18.9657C8.38432 19.1157 8.5878 19.2 8.79998 19.2C9.01215 19.2 9.21563 19.1157 9.36566 18.9657C9.51569 18.8156 9.59998 18.6122 9.59998 18.4C9.59998 18.1878 9.51569 17.9843 9.36566 17.8343C9.21563 17.6843 9.01215 17.6 8.79998 17.6ZM11.2 18.4C11.2 18.1878 11.2843 17.9843 11.4343 17.8343C11.5843 17.6843 11.7878 17.6 12 17.6C12.2121 17.6 12.4156 17.6843 12.5657 17.8343C12.7157 17.9843 12.8 18.1878 12.8 18.4C12.8 18.6122 12.7157 18.8156 12.5657 18.9657C12.4156 19.1157 12.2121 19.2 12 19.2C11.7878 19.2 11.5843 19.1157 11.4343 18.9657C11.2843 18.8156 11.2 18.6122 11.2 18.4ZM15.2 17.6C14.9878 17.6 14.7843 17.6843 14.6343 17.8343C14.4843 17.9843 14.4 18.1878 14.4 18.4C14.4 18.6122 14.4843 18.8156 14.6343 18.9657C14.7843 19.1157 14.9878 19.2 15.2 19.2C15.4122 19.2 15.6156 19.1157 15.7657 18.9657C15.9157 18.8156 16 18.6122 16 18.4C16 18.1878 15.9157 17.9843 15.7657 17.8343C15.6156 17.6843 15.4122 17.6 15.2 17.6Z" fill="black"/>
</g>
</svg>
