<svg width="24" height="24" viewBox="0 0 24 24" fill="none" xmlns="http://www.w3.org/2000/svg">
<g id="solar:library-bold-duotone">
<path id="Vector" fill-rule="evenodd" clip-rule="evenodd" d="M8.67196 7.54199H15.328C18.702 7.54199 20.39 7.54199 21.338 8.52899C22.285 9.51599 22.062 11.04 21.616 14.089L21.194 16.981C20.844 19.372 20.669 20.568 19.772 21.284C18.875 22 17.552 22 14.905 22H9.09496C6.44896 22 5.12496 22 4.22796 21.284C3.33096 20.568 3.15596 19.372 2.80596 16.981L2.38396 14.089C1.93696 11.04 1.71396 9.51599 2.66196 8.52899C3.60996 7.54199 5.29796 7.54199 8.67196 7.54199ZM7.99996 18C7.99996 17.586 8.37296 17.25 8.83296 17.25H15.167C15.627 17.25 16 17.586 16 18C16 18.414 15.627 18.75 15.167 18.75H8.83296C8.37296 18.75 7.99996 18.414 7.99996 18Z" fill="black"/>
<path id="Vector_2" opacity="0.4" d="M8.50995 2H15.4899C15.7229 2 15.8999 2 16.0569 2.015C17.1649 2.124 18.0709 2.79 18.4559 3.687H5.54395C5.92895 2.79 6.83594 2.124 7.94394 2.015C8.09894 2 8.27795 2 8.50995 2Z" fill="black"/>
<path id="Vector_3" opacity="0.7" d="M6.30998 4.72302C4.91998 4.72302 3.77998 5.56302 3.39998 6.67602C3.39165 6.69924 3.38365 6.72258 3.37598 6.74602C3.77905 6.62819 4.19109 6.54358 4.60798 6.49302C5.68798 6.35502 7.05398 6.35502 8.63998 6.35502H15.532C17.118 6.35502 18.484 6.35502 19.564 6.49302C19.984 6.54702 20.398 6.62602 20.796 6.74602C20.7886 6.72259 20.7809 6.69925 20.773 6.67602C20.393 5.56202 19.253 4.72302 17.862 4.72302H6.30998Z" fill="black"/>
</g>
</svg>
