<svg width="24" height="24" viewBox="0 0 24 24" fill="none" xmlns="http://www.w3.org/2000/svg">
<g id="solar:settings-bold">
<path id="Vector" fill-rule="evenodd" clip-rule="evenodd" d="M14.2789 2.152C13.9089 2 13.4389 2 12.4999 2C11.5609 2 11.0919 2 10.7209 2.152C10.2284 2.35421 9.83633 2.74377 9.63095 3.235C9.53695 3.458 9.50095 3.719 9.48595 4.098C9.47928 4.3726 9.40268 4.64097 9.2634 4.87772C9.12411 5.11447 8.92674 5.31178 8.68995 5.451C8.44869 5.5851 8.17749 5.65615 7.90148 5.65754C7.62546 5.65894 7.35355 5.59065 7.11095 5.459C6.77295 5.281 6.52795 5.183 6.28595 5.151C5.7565 5.08148 5.22102 5.2238 4.79595 5.547C4.47795 5.789 4.24295 6.193 3.77395 7C3.30395 7.807 3.06995 8.21 3.01695 8.605C2.94695 9.131 3.09095 9.663 3.41695 10.084C3.56495 10.276 3.77395 10.437 4.09695 10.639C4.57395 10.936 4.87995 11.442 4.87995 12C4.87995 12.558 4.57395 13.064 4.09795 13.36C3.77395 13.563 3.56495 13.724 3.41595 13.916C3.25503 14.1239 3.13692 14.3617 3.06843 14.6156C2.99995 14.8694 2.98245 15.1343 3.01695 15.395C3.06995 15.789 3.30395 16.193 3.77395 17C4.24395 17.807 4.47795 18.21 4.79595 18.453C5.21995 18.776 5.75595 18.918 6.28595 18.849C6.52795 18.817 6.77295 18.719 7.11095 18.541C7.35368 18.4092 7.62577 18.3408 7.90198 18.3422C8.17819 18.3436 8.44957 18.4147 8.69095 18.549C9.17695 18.829 9.46495 19.344 9.48595 19.902C9.50095 20.282 9.53695 20.542 9.63095 20.765C9.83495 21.255 10.2269 21.645 10.7209 21.848C11.0909 22 11.5609 22 12.4999 22C13.4389 22 13.9089 22 14.2789 21.848C14.7715 21.6458 15.1636 21.2562 15.3689 20.765C15.4629 20.542 15.4989 20.282 15.5139 19.902C15.5339 19.344 15.8229 18.828 16.3099 18.549C16.5512 18.4149 16.8224 18.3439 17.0984 18.3425C17.3744 18.3411 17.6463 18.4093 17.8889 18.541C18.2269 18.719 18.472 18.817 18.714 18.849C19.244 18.919 19.7799 18.776 20.2039 18.453C20.5219 18.211 20.7569 17.807 21.2259 17C21.6959 16.193 21.9299 15.79 21.9829 15.395C22.0173 15.1343 21.9996 14.8693 21.931 14.6155C21.8623 14.3616 21.744 14.1239 21.5829 13.916C21.4349 13.724 21.2259 13.563 20.9029 13.361C20.4259 13.064 20.1199 12.558 20.1199 12C20.1199 11.442 20.4259 10.936 20.9019 10.64C21.2259 10.437 21.4349 10.276 21.5839 10.084C21.7449 9.87606 21.863 9.63829 21.9315 9.38443C22 9.13057 22.0174 8.86566 21.9829 8.605C21.9299 8.211 21.6959 7.807 21.2259 7C20.7559 6.193 20.5219 5.79 20.2039 5.547C19.7789 5.2238 19.2434 5.08148 18.714 5.151C18.472 5.183 18.2269 5.281 17.8889 5.459C17.6462 5.59083 17.3741 5.65922 17.0979 5.65782C16.8217 5.65642 16.5503 5.58528 16.3089 5.451C16.0723 5.31166 15.8752 5.11429 15.7361 4.87755C15.597 4.64081 15.5205 4.37251 15.5139 4.098C15.4989 3.718 15.4629 3.458 15.3689 3.235C15.2673 2.99174 15.1187 2.77088 14.9317 2.58506C14.7447 2.39923 14.5229 2.25208 14.2789 2.152ZM12.4999 15C14.1699 15 15.5229 13.657 15.5229 12C15.5229 10.343 14.1689 9 12.4999 9C10.8299 9 9.47695 10.343 9.47695 12C9.47695 13.657 10.8309 15 12.4999 15Z" fill="black"/>
</g>
</svg>
