<svg width="24" height="24" viewBox="0 0 24 24" fill="none" xmlns="http://www.w3.org/2000/svg">
<g id="solar:like-bold">
<path id="Vector" d="M20.27 16.265L20.975 12.185C21.0163 11.9459 21.005 11.7006 20.9416 11.4663C20.8783 11.232 20.7646 11.0144 20.6084 10.8287C20.4522 10.643 20.2573 10.4936 20.0373 10.391C19.8173 10.2885 19.5776 10.2352 19.335 10.235H14.154C14.033 10.235 13.9136 10.2087 13.8039 10.1579C13.6941 10.1071 13.5968 10.0331 13.5186 9.94087C13.4403 9.84867 13.3831 9.74054 13.3509 9.624C13.3187 9.50746 13.3122 9.3853 13.332 9.26601L13.995 5.22101C14.1025 4.56424 14.0719 3.89225 13.905 3.24801C13.8335 2.98181 13.696 2.73799 13.505 2.5392C13.3141 2.34042 13.0761 2.19313 12.813 2.11101L12.668 2.06401C12.3401 1.9587 11.9844 1.98303 11.674 2.13201C11.334 2.29601 11.086 2.59501 10.994 2.95001L10.518 4.78401C10.3664 5.36764 10.1462 5.93124 9.86196 6.46301C9.44696 7.24001 8.80496 7.86301 8.13696 8.43801L6.69796 9.67801C6.49833 9.85052 6.34241 10.0679 6.24299 10.3123C6.14356 10.5567 6.10346 10.8211 6.12596 11.084L6.93796 20.477C6.97375 20.8924 7.164 21.2793 7.47115 21.5613C7.7783 21.8432 8.18001 21.9998 8.59696 22H13.245C16.727 22 19.698 19.574 20.27 16.265Z" fill="black"/>
<path id="Vector_2" fill-rule="evenodd" clip-rule="evenodd" d="M2.96796 9.48497C3.16122 9.47652 3.35027 9.54307 3.49562 9.67072C3.64097 9.79837 3.73138 9.97724 3.74796 10.17L4.71796 21.406C4.73439 21.5733 4.71654 21.7422 4.6655 21.9024C4.61446 22.0626 4.5313 22.2107 4.4211 22.3377C4.3109 22.4646 4.17597 22.5678 4.02456 22.6409C3.87315 22.714 3.70843 22.7554 3.54046 22.7627C3.37249 22.77 3.2048 22.743 3.04763 22.6833C2.89046 22.6236 2.74711 22.5324 2.62633 22.4155C2.50556 22.2985 2.40989 22.1582 2.34518 22.003C2.28047 21.8478 2.24807 21.6811 2.24996 21.513V10.234C2.25004 10.0407 2.32476 9.85483 2.45854 9.71528C2.59232 9.57573 2.77481 9.49322 2.96796 9.48497Z" fill="black"/>
</g>
</svg>
