<svg width="24" height="24" viewBox="0 0 24 24" fill="none" xmlns="http://www.w3.org/2000/svg">
<g id="solar:lock-keyhole-minimalistic-bold">
<path id="Vector" fill-rule="evenodd" clip-rule="evenodd" d="M5.25 10.055V8C5.25 6.20979 5.96116 4.4929 7.22703 3.22703C8.4929 1.96116 10.2098 1.25 12 1.25C13.7902 1.25 15.5071 1.96116 16.773 3.22703C18.0388 4.4929 18.75 6.20979 18.75 8V10.055C19.865 10.138 20.59 10.348 21.121 10.879C22 11.757 22 13.172 22 16C22 18.828 22 20.243 21.121 21.121C20.243 22 18.828 22 16 22H8C5.172 22 3.757 22 2.879 21.121C2 20.243 2 18.828 2 16C2 13.172 2 11.757 2.879 10.879C3.409 10.348 4.135 10.138 5.25 10.055ZM6.75 8C6.75 6.60761 7.30312 5.27226 8.28769 4.28769C9.27226 3.30312 10.6076 2.75 12 2.75C13.3924 2.75 14.7277 3.30312 15.7123 4.28769C16.6969 5.27226 17.25 6.60761 17.25 8V10.004C16.867 10 16.451 10 16 10H8C7.548 10 7.133 10 6.75 10.004V8ZM12 13.25C12.1989 13.25 12.3897 13.329 12.5303 13.4697C12.671 13.6103 12.75 13.8011 12.75 14V18C12.75 18.1989 12.671 18.3897 12.5303 18.5303C12.3897 18.671 12.1989 18.75 12 18.75C11.8011 18.75 11.6103 18.671 11.4697 18.5303C11.329 18.3897 11.25 18.1989 11.25 18V14C11.25 13.8011 11.329 13.6103 11.4697 13.4697C11.6103 13.329 11.8011 13.25 12 13.25Z" fill="black"/>
</g>
</svg>
