<svg width="24" height="24" viewBox="0 0 24 24" fill="none" xmlns="http://www.w3.org/2000/svg">
<g id="solar:tag-horizontal-linear">
<path id="Vector" d="M7.5 7.995V17M10.721 21H13.358C15.585 21 16.699 21 17.628 20.467C18.558 19.935 19.148 18.958 20.329 17.005L21.01 15.879C22.003 14.236 22.5 13.414 22.5 12.5C22.5 11.586 22.003 10.764 21.01 9.121L20.33 7.995C19.149 6.042 18.559 5.065 17.629 4.533C16.699 4 15.585 4 13.358 4H10.721C6.846 4 4.908 4 3.704 5.245C2.5 6.49 2.5 8.493 2.5 12.5C2.5 16.507 2.5 18.51 3.704 19.755C4.908 21 6.847 21 10.721 21Z" stroke="black" stroke-width="1.5" stroke-linecap="round"/>
</g>
</svg>
