<svg width="24" height="24" viewBox="0 0 24 24" fill="none" xmlns="http://www.w3.org/2000/svg">
<g id="solar:infinity-bold">
<path id="Vector" fill-rule="evenodd" clip-rule="evenodd" d="M6.99998 7.75C5.87281 7.75 4.7918 8.19777 3.99477 8.9948C3.19774 9.79183 2.74998 10.8728 2.74998 12C2.74998 13.1272 3.19774 14.2082 3.99477 15.0052C4.7918 15.8022 5.87281 16.25 6.99998 16.25C7.59698 16.25 8.04498 16.143 8.40698 15.966C8.76898 15.79 9.08598 15.524 9.39298 15.15C9.93298 14.49 10.376 13.592 10.96 12.409C11.077 12.172 11.2 11.924 11.33 11.665L11.67 10.975C12.251 9.794 12.787 8.705 13.447 7.9C13.857 7.399 14.337 6.977 14.937 6.685C15.537 6.393 16.217 6.25 17 6.25C17.9111 6.25 18.8091 6.46651 19.6201 6.88168C20.4311 7.29685 21.1319 7.89879 21.6646 8.63792C22.1973 9.37704 22.5468 10.2322 22.6842 11.1329C22.8216 12.0335 22.743 12.954 22.4549 13.8183C22.1668 14.6827 21.6774 15.4662 21.0271 16.1043C20.3767 16.7424 19.5841 17.2168 18.7144 17.4885C17.8448 17.7601 16.923 17.8212 16.0251 17.6668C15.1272 17.5123 14.2789 17.1467 13.55 16.6C13.3908 16.4807 13.2856 16.303 13.2575 16.1061C13.2294 15.9092 13.2806 15.7091 13.4 15.55C13.5193 15.3909 13.697 15.2857 13.8939 15.2575C14.0908 15.2294 14.2908 15.2807 14.45 15.4C14.9887 15.8041 15.6158 16.0743 16.2794 16.1885C16.9431 16.3026 17.6244 16.2575 18.2672 16.0567C18.91 15.8559 19.4959 15.5052 19.9765 15.0336C20.4572 14.5619 20.8189 13.9828 21.0319 13.344C21.2448 12.7051 21.3029 12.0248 21.2014 11.3591C21.0998 10.6933 20.8415 10.0613 20.4478 9.51498C20.054 8.96867 19.5361 8.52376 18.9366 8.21689C18.3372 7.91003 17.6734 7.75 17 7.75C16.403 7.75 15.955 7.857 15.593 8.034C15.231 8.21 14.914 8.476 14.607 8.85C14.067 9.51 13.624 10.408 13.04 11.591C12.923 11.828 12.8 12.076 12.67 12.335L12.33 13.025C11.749 14.206 11.213 15.295 10.553 16.101C10.143 16.601 9.66298 17.023 9.06298 17.315C8.46298 17.607 7.78298 17.75 6.99998 17.75C6.08892 17.7498 5.19094 17.5332 4.38003 17.1179C3.56913 16.7027 2.8685 16.1006 2.3359 15.3615C1.80329 14.6223 1.45394 13.7672 1.31665 12.8665C1.17935 11.9659 1.25803 11.0455 1.54621 10.1812C1.83438 9.31694 2.32381 8.53351 2.97414 7.89548C3.62448 7.25745 4.41712 6.78308 5.28675 6.51147C6.15638 6.23986 7.0781 6.17878 7.97596 6.33326C8.87383 6.48775 9.72213 6.85337 10.451 7.4C10.5298 7.45916 10.5961 7.53326 10.6463 7.61807C10.6965 7.70288 10.7294 7.79674 10.7433 7.89429C10.7572 7.99184 10.7517 8.09116 10.7272 8.1866C10.7027 8.28203 10.6596 8.37171 10.6005 8.4505C10.5413 8.52929 10.4672 8.59566 10.3824 8.64582C10.2976 8.69597 10.2037 8.72893 10.1062 8.74282C10.0086 8.7567 9.90931 8.75123 9.81388 8.72673C9.71844 8.70222 9.62877 8.65916 9.54998 8.6C8.81507 8.04682 7.91981 7.7484 6.99998 7.75Z" fill="black"/>
</g>
</svg>
