<svg width="24" height="24" viewBox="0 0 24 24" fill="none" xmlns="http://www.w3.org/2000/svg">
<g id="solar:shop-2-linear">
<g id="Group">
<path id="Vector" d="M22 22H2M20 22V11M4 22V11" stroke="black" stroke-width="1.5" stroke-linecap="round"/>
<path id="Vector_2" d="M16.5279 2H7.47195C6.26895 2 5.66795 2 5.18495 2.299C4.70095 2.597 4.43195 3.135 3.89495 4.211L2.48995 7.76C2.16595 8.58 1.88195 9.546 2.42795 10.239C2.68516 10.566 3.03797 10.8047 3.43722 10.9218C3.83647 11.0388 4.26229 11.0285 4.65537 10.8921C5.04845 10.7558 5.38923 10.5002 5.63023 10.1611C5.87124 9.82192 6.00048 9.41606 5.99995 9C5.99995 9.53043 6.21066 10.0391 6.58573 10.4142C6.96081 10.7893 7.46951 11 7.99995 11C8.53038 11 9.03909 10.7893 9.41416 10.4142C9.78923 10.0391 9.99995 9.53043 9.99995 9C9.99995 9.53043 10.2107 10.0391 10.5857 10.4142C10.9608 10.7893 11.4695 11 11.9999 11C12.5304 11 13.0391 10.7893 13.4142 10.4142C13.7892 10.0391 13.9999 9.53043 13.9999 9C13.9999 9.53043 14.2107 10.0391 14.5857 10.4142C14.9608 10.7893 15.4695 11 15.9999 11C16.5304 11 17.0391 10.7893 17.4142 10.4142C17.7892 10.0391 17.9999 9.53043 17.9999 9C17.9999 9.41573 18.1294 9.82114 18.3704 10.1599C18.6114 10.4986 18.952 10.7538 19.3448 10.8899C19.7376 11.0261 20.1631 11.0365 20.5621 10.9197C20.961 10.8028 21.3137 10.5646 21.5709 10.238C22.1169 9.545 21.8329 8.579 21.5089 7.759L20.1049 4.211C19.5679 3.135 19.2989 2.597 18.8149 2.299C18.3319 2 17.7309 2 16.5279 2Z" stroke="black" stroke-width="1.5" stroke-linejoin="round"/>
<path id="Vector_3" d="M9.5 21.5V18.5C9.5 17.565 9.5 17.098 9.701 16.75C9.83265 16.522 10.022 16.3326 10.25 16.201C10.598 16 11.065 16 12 16C12.935 16 13.402 16 13.75 16.201C13.978 16.3326 14.1674 16.522 14.299 16.75C14.5 17.098 14.5 17.565 14.5 18.5V21.5" stroke="black" stroke-width="1.5" stroke-linecap="round"/>
</g>
</g>
</svg>
