<svg width="24" height="24" viewBox="0 0 24 24" fill="none" xmlns="http://www.w3.org/2000/svg">
<g id="uiw:enter" clip-path="url(#clip0_1895_15730)">
<path id="Vector" d="M23.1598 0C23.3826 0 23.5963 0.0884998 23.7538 0.24603C23.9113 0.403561 23.9998 0.617218 23.9998 0.84V10.7736C23.9992 12.9053 23.152 14.9495 21.6446 16.4568C20.1371 17.964 18.0928 18.8109 15.961 18.8112L2.76584 18.81L6.52304 22.566C6.60104 22.644 6.66292 22.7366 6.70514 22.8385C6.74735 22.9404 6.76908 23.0497 6.76908 23.16C6.76908 23.2703 6.74735 23.3796 6.70514 23.4815C6.66292 23.5834 6.60104 23.676 6.52304 23.754C6.44503 23.832 6.35243 23.8939 6.25051 23.9361C6.14859 23.9783 6.03935 24 5.92904 24C5.81872 24 5.70949 23.9783 5.60757 23.9361C5.50565 23.8939 5.41304 23.832 5.33504 23.754L0.247037 18.6648C0.169027 18.5868 0.107145 18.4942 0.064926 18.3923C0.0227066 18.2904 0.000976562 18.1811 0.000976562 18.0708C0.000976563 17.9605 0.0227066 17.8512 0.064926 17.7493C0.107145 17.6474 0.169027 17.5548 0.247037 17.4768L5.33624 12.3876C5.41424 12.3096 5.50685 12.2477 5.60877 12.2055C5.71069 12.1633 5.81992 12.1416 5.93024 12.1416C6.04055 12.1416 6.14979 12.1633 6.25171 12.2055C6.35363 12.2477 6.44623 12.3096 6.52424 12.3876C6.60224 12.4656 6.66412 12.5582 6.70634 12.6601C6.74855 12.762 6.77028 12.8713 6.77028 12.9816C6.77028 13.0919 6.74855 13.2012 6.70634 13.3031C6.66412 13.405 6.60224 13.4976 6.52424 13.5756L2.96624 17.1312H15.9622C17.6483 17.1309 19.2652 16.461 20.4574 15.2688C21.6496 14.0765 22.3195 12.4596 22.3198 10.7736V0.84C22.3198 0.617218 22.4083 0.403561 22.5659 0.24603C22.7234 0.0884998 22.9371 0 23.1598 0Z" fill="black"/>
</g>
<defs>
<clipPath id="clip0_1895_15730">
<rect width="24" height="24" fill="white"/>
</clipPath>
</defs>
</svg>
